<svg width="100" height="100" viewBox="0 0 100 100" fill="none" xmlns="http://www.w3.org/2000/svg">
<g clip-path="url(#clip0_33_133)">
<path d="M71.2809 50.0295C59.6386 40.0059 31.4276 14.0487 18.906 23.7638C4.59854 34.8645 2.0653 55.5474 13.2478 69.9603C22.3334 81.6704 37.3468 76.7941 50.4556 71.9171C46.509 69.9817 42.9013 67.3718 39.8056 64.187C32.6037 64.4362 25.6982 70.1647 20.9207 64.0071C13.0503 53.8631 14.8332 39.3061 24.903 31.4933C32.7685 25.3907 50.8772 44.983 58.8896 50.0295C62.0147 48.8593 66.0435 50.0295 71.2809 50.0295Z" fill="#1FB6B6"/>
<path fill-rule="evenodd" clip-rule="evenodd" d="M19.0898 45.0403C30.7321 55.064 67.5984 86.6579 80.12 76.9427C94.4274 65.842 96.9607 45.1591 85.7781 30.7463C76.6926 19.0361 61.3484 21.9581 48.2396 26.8352C52.1862 28.7706 55.7939 31.3804 58.8896 34.5653C66.0915 34.3161 73.1776 28.4077 77.9551 34.5653C85.8255 44.7093 84.1928 61.4004 74.123 69.2133C66.2574 75.3159 34.2157 47.6506 27.7696 41.6074C24.5465 44.0247 22.935 44.4275 19.0898 45.0403Z" fill="#154A89"/>
</g>
<defs>
<clipPath id="clip0_33_133">
<rect width="100" height="100" fill="white"/>
</clipPath>
</defs>
</svg>
