<svg width="100" height="100" viewBox="0 0 100 100" fill="none" xmlns="http://www.w3.org/2000/svg">
<g clip-path="url(#clip0_33_132)">
<path d="M71.0139 50.0327C59.371 40.0086 31.1583 14.0498 18.6359 23.7655C4.32768 34.8669 1.79429 55.551 12.9775 69.9647C22.0635 81.6755 37.0778 76.7989 50.1874 71.9216C46.2406 69.986 42.6327 67.3761 39.5368 64.1911C32.3345 64.4403 25.4286 70.1691 20.6508 64.0112C12.7799 53.8665 14.5629 39.3087 24.6333 31.4954C32.4993 25.3925 50.6091 44.9859 58.6219 50.0327C61.7471 48.8624 65.7762 50.0327 71.0139 50.0327Z" fill="#24DBDB"/>
<path fill-rule="evenodd" clip-rule="evenodd" d="M18.8198 45.0433C30.4627 55.0675 67.3311 86.6632 79.8535 76.9475C94.1618 65.8462 96.6951 45.1621 85.512 30.7484C76.4259 19.0376 61.0809 21.9598 47.9713 26.8371C51.9181 28.7726 55.526 31.3826 58.6219 34.5676C65.8242 34.3184 72.9107 28.4097 77.6884 34.5676C85.5593 44.7122 83.9265 61.4043 73.8561 69.2176C65.9901 75.3206 33.9466 47.6537 27.5001 41.6101C24.2768 44.0275 22.6652 44.4305 18.8198 45.0433Z" fill="#5FA6F8"/>
</g>
<defs>
<clipPath id="clip0_33_132">
<rect width="100" height="100" fill="white"/>
</clipPath>
</defs>
</svg>
